<svg width="16" height="14" viewBox="0 0 16 14" fill="none" xmlns="http://www.w3.org/2000/svg">
<path d="M15.4016 2.14961C14.8343 2.40485 14.2355 2.56437 13.6051 2.66009C14.2355 2.27723 14.7397 1.67103 14.9604 0.937204C14.3615 1.28816 13.6997 1.5434 12.9747 1.70293C12.4074 1.09673 11.588 0.713867 10.7054 0.713867C9.00348 0.713867 7.61669 2.1177 7.61669 3.84059C7.61669 4.09583 7.64821 4.31916 7.71125 4.5425C5.15829 4.41488 2.85748 3.17057 1.3131 1.25626C1.06096 1.73484 0.903369 2.24532 0.903369 2.81962C0.903369 3.9044 1.43917 4.86155 2.29016 5.43585C1.78587 5.40394 1.3131 5.27632 0.871851 5.05299V5.08489C0.871851 6.61635 1.94346 7.89256 3.36177 8.17971C3.10963 8.24352 2.82596 8.27542 2.5423 8.27542C2.35319 8.27542 2.13257 8.24352 1.94346 8.21161C2.35319 9.45592 3.48784 10.3812 4.84311 10.3812C3.7715 11.2107 2.44775 11.7212 0.997923 11.7212C0.745779 11.7212 0.493636 11.7212 0.27301 11.6893C1.6598 12.5826 3.26722 13.0931 5.03222 13.0931C10.737 13.0931 13.8572 8.30733 13.8572 4.15964C13.8572 4.03202 13.8572 3.87249 13.8572 3.74487C14.4561 3.3301 14.9919 2.78771 15.4016 2.14961Z" fill="#262626"/>
</svg>
