<svg width="20" height="19" viewBox="0 0 20 19" fill="none" xmlns="http://www.w3.org/2000/svg">
<path d="M10.0679 1.67297C12.5168 1.67297 12.8068 1.68225 13.7742 1.72691C14.3558 1.73411 14.932 1.84223 15.4775 2.04656C15.8731 2.20101 16.2324 2.4376 16.5322 2.74112C16.8321 3.04464 17.0658 3.40834 17.2184 3.80883C17.4202 4.36108 17.527 4.94429 17.5342 5.53308C17.5778 6.51237 17.5874 6.80594 17.5874 9.28488C17.5874 11.7638 17.5783 12.0574 17.5342 13.0367C17.527 13.6255 17.4202 14.2087 17.2184 14.7609C17.0658 15.1614 16.8321 15.5251 16.5322 15.8286C16.2324 16.1322 15.8731 16.3688 15.4775 16.5232C14.932 16.7275 14.3558 16.8357 13.7742 16.8429C12.8072 16.8871 12.5172 16.8968 10.0679 16.8968C7.61865 16.8968 7.32864 16.8875 6.36168 16.8429C5.78003 16.8357 5.20391 16.7275 4.65836 16.5232C4.26274 16.3688 3.90345 16.1322 3.60362 15.8286C3.30378 15.5251 3.07006 15.1614 2.91748 14.7609C2.71564 14.2087 2.60883 13.6255 2.60171 13.0367C2.55804 12.0574 2.54843 11.7638 2.54843 9.28488C2.54843 6.80594 2.5576 6.51237 2.60171 5.53308C2.60883 4.94429 2.71564 4.36108 2.91748 3.80883C3.07006 3.40834 3.30378 3.04464 3.60362 2.74112C3.90345 2.4376 4.26274 2.20101 4.65836 2.04656C5.20391 1.84223 5.78003 1.73411 6.36168 1.72691C7.32908 1.68269 7.61908 1.67297 10.0679 1.67297ZM10.0679 0C7.57846 0 7.26488 0.0106108 6.28656 0.0557066C5.52533 0.0710339 4.77218 0.216938 4.05914 0.487212C3.44747 0.720502 2.89346 1.08609 2.43575 1.55846C1.96869 2.02196 1.60723 2.58311 1.37663 3.20269C1.10964 3.92449 0.965508 4.68689 0.950367 5.45748C0.906692 6.44694 0.89621 6.76438 0.89621 9.28444C0.89621 11.8045 0.906692 12.1219 0.95124 13.1123C0.966381 13.8829 1.11051 14.6453 1.37751 15.3671C1.60785 15.9866 1.969 16.5477 2.43575 17.0113C2.89371 17.4838 3.44804 17.8494 4.06002 18.0826C4.77305 18.3528 5.5262 18.4987 6.28744 18.5141C7.26575 18.5583 7.57803 18.5698 10.0688 18.5698C12.5596 18.5698 12.8719 18.5592 13.8502 18.5141C14.6114 18.4987 15.3646 18.3528 16.0776 18.0826C16.6867 17.8436 17.2398 17.4785 17.7015 17.0108C18.1633 16.543 18.5235 15.9829 18.7592 15.3662C19.0262 14.6444 19.1704 13.882 19.1855 13.1114C19.2292 12.1219 19.2397 11.8045 19.2397 9.28444C19.2397 6.76438 19.2292 6.44694 19.1846 5.4566C19.1695 4.68601 19.0254 3.9236 18.7584 3.2018C18.528 2.5823 18.1669 2.02117 17.7001 1.55758C17.2422 1.0851 16.6878 0.719503 16.0758 0.486328C15.3628 0.216053 14.6097 0.0701497 13.8484 0.0548224C12.871 0.0106108 12.5574 0 10.0679 0Z" fill="#262626"/>
<path d="M10.067 4.51709C9.13552 4.51709 8.22491 4.79672 7.45037 5.32061C6.67583 5.8445 6.07215 6.58912 5.71567 7.46032C5.35919 8.33152 5.26592 9.29016 5.44765 10.215C5.62938 11.1399 6.07796 11.9894 6.73665 12.6562C7.39534 13.323 8.23456 13.7771 9.14819 13.961C10.0618 14.145 11.0088 14.0506 11.8694 13.6897C12.7301 13.3289 13.4657 12.7178 13.9832 11.9337C14.5007 11.1496 14.7769 10.2278 14.7769 9.28487C14.7769 8.02038 14.2807 6.80767 13.3974 5.91354C12.5142 5.01941 11.3162 4.51709 10.067 4.51709ZM10.067 12.3797C9.46238 12.3797 8.8713 12.1982 8.36853 11.8581C7.86577 11.5181 7.47392 11.0347 7.24252 10.4692C7.01113 9.9037 6.95059 9.28144 7.06855 8.6811C7.18651 8.08077 7.47769 7.52932 7.90525 7.09651C8.33281 6.66369 8.87756 6.36894 9.47061 6.24952C10.0637 6.13011 10.6784 6.1914 11.237 6.42564C11.7956 6.65987 12.2731 7.05654 12.609 7.56548C12.945 8.07442 13.1243 8.67277 13.1243 9.28487C13.1243 10.1057 12.8022 10.8928 12.2288 11.4732C11.6555 12.0536 10.8779 12.3797 10.067 12.3797Z" fill="#262626"/>
<path d="M14.9636 5.44262C15.5715 5.44262 16.0642 4.94381 16.0642 4.32849C16.0642 3.71317 15.5715 3.21436 14.9636 3.21436C14.3558 3.21436 13.863 3.71317 13.863 4.32849C13.863 4.94381 14.3558 5.44262 14.9636 5.44262Z" fill="#262626"/>
</svg>
