<svg width="19" height="18" viewBox="0 0 19 18" fill="none" xmlns="http://www.w3.org/2000/svg">
<path fill-rule="evenodd" clip-rule="evenodd" d="M9.48182 0C4.61997 0 0.708557 3.95948 0.708557 8.88109C0.708557 12.8036 3.23087 16.134 6.70362 17.3181C7.14229 17.3921 7.28851 17.1331 7.28851 16.8741C7.28851 16.652 7.28851 16.097 7.28851 15.3569C4.8393 15.9119 4.32753 14.1727 4.32753 14.1727C3.92542 13.1366 3.34054 12.8776 3.34054 12.8776C2.53632 12.3225 3.41365 12.3225 3.41365 12.3225C4.29097 12.3965 4.76619 13.2476 4.76619 13.2476C5.53385 14.6168 6.81329 14.2097 7.32506 13.9877C7.39817 13.3956 7.6175 13.0256 7.87339 12.8036C5.93596 12.5815 3.88887 11.8044 3.88887 8.40003C3.88887 7.43791 4.21786 6.62381 4.80275 6.03174C4.72964 5.80971 4.40064 4.9216 4.87586 3.66345C4.87586 3.66345 5.60696 3.44142 7.28851 4.58856C7.98306 4.40354 8.75072 4.29253 9.48182 4.29253C10.2129 4.29253 10.9806 4.40354 11.6751 4.58856C13.3567 3.44142 14.0878 3.66345 14.0878 3.66345C14.563 4.8846 14.2706 5.77271 14.1609 6.03174C14.7092 6.66082 15.0748 7.43791 15.0748 8.40003C15.0748 11.8044 13.0277 12.5445 11.0537 12.7666C11.3827 13.0256 11.6386 13.5807 11.6386 14.3948C11.6386 15.5789 11.6386 16.541 11.6386 16.8371C11.6386 17.0591 11.7848 17.3551 12.26 17.2811C15.7328 16.134 18.2551 12.8036 18.2551 8.88109C18.2551 3.95948 14.3437 0 9.48182 0Z" fill="#262626"/>
</svg>
