<svg width="50" height="50" viewBox="0 0 50 50" fill="none" xmlns="http://www.w3.org/2000/svg">
<path fill-rule="evenodd" clip-rule="evenodd" d="M24.9989 11.1463L23.1779 9.27463C20.3081 6.32612 14.9419 7.30134 12.994 11.1032C12.1051 12.8428 11.8486 15.4383 13.5934 18.8795C15.2467 22.1506 18.7006 26.1302 24.9989 30.5034C31.2946 26.1276 34.7485 22.148 36.4043 18.8795C38.1491 15.4383 37.8951 12.8428 37.0037 11.1057C35.0558 7.30134 29.6896 6.32612 26.8198 9.27463L24.9989 11.1463ZM23.7544 32.7332C-3.62282 13.8384 16.1355 -0.675652 24.6662 7.1769C24.7804 7.28102 24.8922 7.39023 25.0014 7.50451C25.1106 7.39023 25.2223 7.28102 25.3366 7.1769C33.8698 -0.675652 53.6205 13.8409 26.2433 32.7332L26.8401 33.9218C26.8774 33.9965 26.8997 34.0778 26.9056 34.1611C26.9116 34.2444 26.901 34.3281 26.8746 34.4073C26.8482 34.4866 26.8064 34.5598 26.7517 34.6229C26.697 34.686 26.6304 34.7377 26.5556 34.7751C26.4809 34.8124 26.3996 34.8347 26.3163 34.8406C26.233 34.8466 26.1493 34.836 26.0701 34.8096C25.9908 34.7832 25.9176 34.7414 25.8545 34.6867C25.7914 34.632 25.7397 34.5654 25.7023 34.4907L25.682 34.4475C25.7023 34.7268 25.7328 34.9605 25.776 35.184C25.9131 35.8697 26.1849 36.4233 26.8401 37.7312C27.5715 39.1991 27.4369 40.6518 27.0331 41.8683C26.6344 43.0594 25.9614 44.0702 25.5398 44.7L25.5296 44.7178C25.4833 44.7871 25.4237 44.8467 25.3543 44.893C25.285 44.9394 25.2071 44.9716 25.1253 44.9879C25.0435 45.0042 24.9592 45.0042 24.8774 44.9879C24.7956 44.9716 24.7178 44.9394 24.6484 44.893C24.579 44.8466 24.5195 44.7871 24.4731 44.7177C24.4268 44.6483 24.3945 44.5705 24.3783 44.4887C24.362 44.4068 24.362 44.3226 24.3783 44.2408C24.3945 44.1589 24.4268 44.0811 24.4731 44.0117C24.8998 43.3718 25.489 42.488 25.8268 41.4645C26.1645 40.4588 26.2407 39.3718 25.7023 38.3001L25.6693 38.229C25.0598 37.01 24.7043 36.304 24.5316 35.4303C24.4604 35.053 24.4163 34.6711 24.3995 34.2875L24.2979 34.4907C24.261 34.5659 24.2095 34.633 24.1464 34.6882C24.0834 34.7434 24.0101 34.7856 23.9307 34.8123C23.8513 34.8391 23.7673 34.8498 23.6838 34.844C23.6002 34.8381 23.5186 34.8158 23.4437 34.7782C23.3687 34.7407 23.302 34.6887 23.2473 34.6252C23.1926 34.5618 23.1509 34.4881 23.1248 34.4085C23.0987 34.3289 23.0886 34.2449 23.0951 34.1614C23.1016 34.0778 23.1246 33.9964 23.1627 33.9218L23.7595 32.7332H23.7544ZM19.9526 10.2321C18.3044 9.77494 16.1863 10.4429 15.2543 12.2587C14.9216 12.9139 14.6321 14.0085 15.0511 15.6491C15.2111 16.2688 16.1025 16.152 16.2879 15.5399C16.8212 13.7698 17.8803 11.8651 19.7393 11.2428C20.2904 11.0575 20.5113 10.387 19.9526 10.2321Z" fill="#166534"/>
</svg>
