<svg width="249" height="249" viewBox="0 0 249 249" fill="none" xmlns="http://www.w3.org/2000/svg">
<mask id="mask0_0_201" style="mask-type:luminance" maskUnits="userSpaceOnUse" x="0" y="0" width="249" height="249">
<circle cx="124.5" cy="124.5" r="124.5" fill="white"/>
</mask>
<g mask="url(#mask0_0_201)">
<path d="M62.2623 -129.169L62.7028 -129.609L62.2629 -130.05L61.8224 -129.61L62.2623 -129.169ZM62.7022 -128.729L63.1427 -129.169L62.7022 -128.729ZM61.3814 -128.29L60.9415 -128.73L60.501 -128.29L60.9409 -127.85L61.3814 -128.29ZM61.8212 -127.849L62.2617 -128.289L61.8212 -127.849ZM387.99 198.76L387.55 199.2L387.99 198.76ZM388.43 199.201L387.99 199.64L388.429 200.081L388.87 199.641L388.43 199.201ZM389.311 198.321L389.751 198.761L390.191 198.321L389.751 197.881L389.311 198.321ZM388.871 197.88L389.312 197.44L388.871 197.88ZM51.6981 -118.605L52.1386 -119.044L51.6987 -119.485L51.2582 -119.045L51.6981 -118.605ZM52.138 -118.164L52.5784 -118.604L52.5784 -118.604L52.138 -118.164ZM50.8171 -117.725L50.3773 -118.165L49.9368 -117.725L50.3767 -117.285L50.8171 -117.725ZM51.257 -117.284L50.8165 -116.845L50.8166 -116.845L51.257 -117.284ZM377.426 209.325L376.985 209.765L377.426 209.325ZM377.866 209.765L377.425 210.205L377.865 210.646L378.306 210.206L377.866 209.765ZM378.747 208.885L379.187 209.326L379.627 208.886L379.187 208.446L378.747 208.885ZM378.307 208.445L377.866 208.885L378.307 208.445ZM41.5737 -107.6L42.0142 -108.04L42.0142 -108.04L41.5737 -107.6ZM41.1339 -108.041L41.5743 -108.48L41.1345 -108.921L40.694 -108.481L41.1339 -108.041ZM367.743 219.009L367.302 219.449L367.743 219.009ZM368.183 219.449L368.622 219.89L369.063 219.45L368.623 219.01L368.183 219.449ZM367.302 220.329L366.861 220.769L367.301 221.21L367.741 220.77L367.302 220.329ZM366.862 219.889L366.421 220.329L366.862 219.889ZM40.6928 -106.72L41.1333 -107.16L41.1333 -107.16L40.6928 -106.72ZM40.2529 -107.161L39.813 -107.601L39.3726 -107.161L39.8125 -106.721L40.2529 -107.161ZM30.5696 -97.4766L31.0101 -97.9165L30.5702 -98.3569L30.1298 -97.9171L30.5696 -97.4766ZM31.0095 -97.0361L31.45 -97.476L31.45 -97.476L31.0095 -97.0361ZM29.6887 -96.5968L29.2488 -97.0373L28.8083 -96.5974L29.2482 -96.157L29.6887 -96.5968ZM30.1286 -96.1564L30.569 -96.5963L30.569 -96.5963L30.1286 -96.1564ZM356.297 230.453L355.857 230.893L356.297 230.453ZM356.737 230.893L356.297 231.333L356.737 231.774L357.177 231.334L356.737 230.893ZM357.618 230.013L358.058 230.454L358.499 230.014L358.059 229.574L357.618 230.013ZM357.178 229.573L356.738 230.013L357.178 229.573ZM20.4453 -86.4719L20.8858 -86.9118L20.8858 -86.9118L20.4453 -86.4719ZM20.0054 -86.9124L20.4459 -87.3523L20.006 -87.7927L19.5655 -87.3528L20.0054 -86.9124ZM346.614 240.137L346.174 240.577L346.614 240.137ZM347.054 240.578L347.494 241.018L347.934 240.578L347.495 240.138L347.054 240.578ZM346.173 241.457L345.733 241.897L346.173 242.338L346.613 241.898L346.173 241.457ZM345.733 241.017L345.293 241.457L345.733 241.017ZM19.5643 -85.5921L20.0048 -86.032L20.0048 -86.032L19.5643 -85.5921ZM19.1245 -86.0326L18.6846 -86.4731L18.2441 -86.0332L18.684 -85.5927L19.1245 -86.0326ZM9.43946 -76.3482L9.87993 -76.788L9.44005 -77.2285L8.99958 -76.7886L9.43946 -76.3482ZM9.87934 -75.9077L10.3198 -76.3476L10.3198 -76.3476L9.87934 -75.9077ZM8.55852 -75.4684L8.11864 -75.9089L7.67817 -75.469L8.11805 -75.0285L8.55852 -75.4684ZM8.9984 -75.0279L9.43887 -75.4678L9.43887 -75.4678L8.9984 -75.0279ZM335.167 251.581L334.727 252.021L335.167 251.581ZM335.607 252.022L335.167 252.462L335.607 252.902L336.047 252.462L335.607 252.022ZM336.488 251.142L336.928 251.582L337.368 251.142L336.929 250.702L336.488 251.142ZM336.048 250.701L335.608 251.141L336.048 250.701ZM-0.683155 -65.3435L-0.242686 -65.7833L-0.242686 -65.7833L-0.683155 -65.3435ZM-1.12303 -65.7839L-0.682563 -66.2238L-1.12244 -66.6643L-1.56291 -66.2244L-1.12303 -65.7839ZM325.486 261.266L325.045 261.705L325.486 261.266ZM325.926 261.706L326.366 262.147L326.806 261.707L326.366 261.266L325.926 261.706ZM325.045 262.586L324.604 263.026L325.044 263.466L325.485 263.026L325.045 262.586ZM324.605 262.145L324.164 262.585L324.605 262.145ZM-1.56409 -64.4637L-1.12362 -64.9036L-1.12362 -64.9036L-1.56409 -64.4637ZM-2.00397 -64.9042L-2.44385 -65.3446L-2.88432 -64.9048L-2.44444 -64.4643L-2.00397 -64.9042ZM-11.689 -55.2199L-11.2485 -55.6598L-11.6884 -56.1003L-12.1289 -55.6604L-11.689 -55.2199ZM-11.2491 -54.7795L-10.8086 -55.2193L-10.8086 -55.2193L-11.2491 -54.7795ZM-12.5699 -54.3402L-13.0098 -54.7806L-13.4503 -54.3408L-13.0104 -53.9003L-12.5699 -54.3402ZM-12.13 -53.8997L-11.6896 -54.3396L-11.6896 -54.3396L-12.13 -53.8997ZM314.039 272.709L313.598 273.149L314.039 272.709ZM314.479 273.15L314.038 273.59L314.478 274.03L314.919 273.59L314.479 273.15ZM315.36 272.27L315.8 272.711L316.24 272.271L315.8 271.83L315.36 272.27ZM314.92 271.83L314.479 272.27L314.92 271.83ZM-21.8116 -44.2152L-21.3711 -44.6551L-21.3711 -44.6551L-21.8116 -44.2152ZM-22.2515 -44.6557L-21.811 -45.0956L-22.2509 -45.536L-22.6914 -45.0962L-22.2515 -44.6557ZM304.357 282.394L303.917 282.834L304.357 282.394ZM304.797 282.834L305.237 283.275L305.678 282.835L305.238 282.394L304.797 282.834ZM303.916 283.714L303.476 284.154L303.916 284.594L304.356 284.155L303.916 283.714ZM303.476 283.274L303.036 283.713L303.476 283.274ZM-22.6925 -43.3355L-22.2521 -43.7754L-22.2521 -43.7754L-22.6925 -43.3355ZM-23.1324 -43.7759L-23.5723 -44.2164L-24.0128 -43.7765L-23.5729 -43.3361L-23.1324 -43.7759ZM-32.8174 -34.0915L-32.377 -34.5313L-32.8168 -34.9718L-33.2573 -34.532L-32.8174 -34.0915ZM-32.3776 -33.651L-32.818 -33.2111L-32.818 -33.2111L-32.3776 -33.651ZM-33.6984 -33.2117L-34.1383 -33.6522L-34.5787 -33.2123L-34.1388 -32.7718L-33.6984 -33.2117ZM-33.2585 -32.7712L-32.818 -33.2111L-32.818 -33.2111L-33.2585 -32.7712ZM292.91 293.838L293.351 293.398L292.91 293.838ZM293.35 294.278L292.91 294.718L293.35 295.159L293.79 294.719L293.35 294.278ZM294.231 293.399L294.671 293.839L295.112 293.399L294.672 292.959L294.231 293.399ZM293.791 292.958L293.351 293.398L293.791 292.958ZM-42.9401 -23.087L-43.3805 -22.6471L-43.3805 -22.6471L-42.9401 -23.087ZM-43.3799 -23.5275L-42.9394 -23.9673L-43.3793 -24.4078L-43.8198 -23.9679L-43.3799 -23.5275ZM283.229 303.522L282.788 303.962L283.229 303.522ZM283.669 303.963L284.109 304.403L284.549 303.963L284.109 303.523L283.669 303.963ZM282.788 304.842L282.347 305.282L282.787 305.723L283.228 305.283L282.788 304.842ZM282.348 304.402L282.788 303.962L282.348 304.402ZM-43.821 -22.2072L-43.3805 -22.6471L-43.3805 -22.6471L-43.821 -22.2072ZM-44.2609 -22.6477L-44.7007 -23.0882L-45.1412 -22.6483L-44.7013 -22.2078L-44.2609 -22.6477ZM-53.9459 -12.963L-53.5054 -13.4029L-53.9453 -13.8434L-54.3857 -13.4035L-53.9459 -12.963ZM-53.506 -12.5226L-53.9465 -12.0827L-53.9465 -12.0827L-53.506 -12.5226ZM-54.8268 -12.0833L-55.2667 -12.5238L-55.7072 -12.0839L-55.2673 -11.6434L-54.8268 -12.0833ZM-54.3869 -11.6428L-53.9465 -12.0827L-53.9465 -12.0827L-54.3869 -11.6428ZM271.782 314.966L272.222 314.526L271.782 314.966ZM272.222 315.407L271.781 315.847L272.221 316.287L272.662 315.847L272.222 315.407ZM273.103 314.527L273.543 314.967L273.983 314.528L273.543 314.087L273.103 314.527ZM272.663 314.087L272.222 314.526L272.663 314.087ZM-64.0685 -1.95833L-64.509 -1.51846L-64.509 -1.51845L-64.0685 -1.95833ZM-64.5084 -2.3988L-64.0679 -2.83867L-64.5078 -3.27915L-64.9482 -2.83928L-64.5084 -2.3988ZM262.1 324.651L261.66 325.091L262.1 324.651ZM262.54 325.091L262.98 325.532L263.421 325.092L262.981 324.651L262.54 325.091ZM261.659 325.971L261.219 326.411L261.659 326.851L262.099 326.411L261.659 325.971ZM261.219 325.531L261.66 325.091L261.219 325.531ZM-64.9494 -1.07858L-64.509 -1.51845L-64.509 -1.51846L-64.9494 -1.07858ZM-65.3893 -1.51904L-65.8292 -1.95952L-66.2697 -1.51963L-65.8298 -1.07916L-65.3893 -1.51904ZM-75.0726 8.16498L-74.6321 7.72511L-75.072 7.28463L-75.5125 7.72451L-75.0726 8.16498ZM-74.6327 8.60546L-75.0732 9.04533L-75.0732 9.04534L-74.6327 8.60546ZM-75.9535 9.04475L-76.3934 8.60427L-76.8339 9.04416L-76.394 9.48463L-75.9535 9.04475ZM-75.5137 9.48521L-75.0732 9.04534L-75.0732 9.04533L-75.5137 9.48521ZM250.655 336.094L251.096 335.654L250.655 336.094ZM251.095 336.535L250.655 336.975L251.095 337.415L251.535 336.975L251.095 336.535ZM251.976 335.655L252.416 336.095L252.856 335.656L252.417 335.215L251.976 335.655ZM251.536 335.215L251.096 335.654L251.536 335.215ZM-85.1969 19.1697L-85.6374 19.6096L-85.6374 19.6096L-85.1969 19.1697ZM-85.6368 18.7292L-85.1963 18.2893L-85.6362 17.8489L-86.0767 18.2887L-85.6368 18.7292ZM240.972 345.779L240.531 346.219L240.972 345.779ZM241.412 346.219L241.852 346.66L242.292 346.22L241.852 345.779L241.412 346.219ZM240.531 347.099L240.09 347.539L240.53 347.979L240.971 347.539L240.531 347.099ZM240.091 346.659L240.532 346.219L240.091 346.659ZM-86.0779 20.0494L-85.6374 19.6096L-85.6374 19.6096L-86.0779 20.0494ZM-86.5178 19.609L-86.9576 19.1685L-87.3981 19.6084L-86.9582 20.0488L-86.5178 19.609ZM-96.201 29.2934L-95.7606 28.8536L-96.2004 28.4131L-96.6409 28.8529L-96.201 29.2934ZM-95.7612 29.7339L-96.2016 30.1738L-96.2016 30.1738L-95.7612 29.7339ZM-97.082 30.1732L-97.5219 29.7327L-97.9623 30.1726L-97.5224 30.6131L-97.082 30.1732ZM-96.6421 30.6137L-96.2016 30.1738L-96.2016 30.1738L-96.6421 30.6137ZM229.527 357.223L229.967 356.783L229.527 357.223ZM229.967 357.663L229.526 358.103L229.966 358.544L230.407 358.104L229.967 357.663ZM230.848 356.783L231.288 357.224L231.728 356.784L231.288 356.344L230.848 356.783ZM230.408 356.343L229.967 356.783L230.408 356.343ZM-106.325 40.2986L-106.766 40.7384L-106.766 40.7384L-106.325 40.2986ZM-106.765 39.8581L-106.325 39.4182L-106.765 38.9777L-107.205 39.4176L-106.765 39.8581ZM219.844 366.908L219.403 367.348L219.844 366.908ZM220.283 367.348L220.723 367.789L221.164 367.349L220.724 366.908L220.283 367.348ZM219.402 368.228L218.962 368.668L219.402 369.108L219.842 368.668L219.402 368.228ZM218.963 367.787L219.403 367.348L218.963 367.787ZM-107.206 41.1783L-106.766 40.7384L-106.766 40.7384L-107.206 41.1783ZM-107.646 40.7378L-108.086 40.2974L-108.527 40.7373L-108.087 41.1777L-107.646 40.7378ZM-117.329 50.4219L-116.889 49.982L-117.329 49.5415L-117.769 49.9814L-117.329 50.4219ZM-116.89 50.8624L-117.33 51.3022L-117.33 51.3022L-116.89 50.8624ZM-118.21 51.3016L-118.65 50.8612L-119.091 51.301L-118.651 51.7415L-118.21 51.3016ZM-117.771 51.7421L-117.33 51.3022L-117.33 51.3022L-117.771 51.7421ZM208.398 378.351L208.839 377.911L208.398 378.351ZM208.838 378.792L208.398 379.232L208.838 379.672L209.278 379.232L208.838 378.792ZM209.719 377.912L210.159 378.352L210.6 377.912L210.16 377.472L209.719 377.912ZM209.279 377.471L208.839 377.911L209.279 377.471ZM61.8218 -128.729L62.2617 -128.289L63.1427 -129.169L62.7028 -129.609L61.8218 -128.729ZM61.8212 -127.849L62.7022 -128.729L61.8224 -129.61L60.9415 -128.73L61.8212 -127.849ZM62.2617 -128.289L61.8218 -128.729L60.9409 -127.85L61.3808 -127.409L62.2617 -128.289ZM388.431 198.32L62.2617 -128.289L61.3808 -127.409L387.55 199.2L388.431 198.32ZM388.871 198.761L388.431 198.32L387.55 199.2L387.99 199.64L388.871 198.761ZM388.871 197.88L387.99 198.76L388.87 199.641L389.751 198.761L388.871 197.88ZM388.431 198.32L388.87 198.761L389.751 197.881L389.312 197.44L388.431 198.32ZM62.2617 -128.289L388.431 198.32L389.312 197.44L63.1427 -129.169L62.2617 -128.289ZM51.2576 -118.165L51.6975 -117.724L52.5784 -118.604L52.1386 -119.044L51.2576 -118.165ZM51.257 -117.284L52.138 -118.164L51.2582 -119.045L50.3773 -118.165L51.257 -117.284ZM51.6975 -117.724L51.2576 -118.165L50.3767 -117.285L50.8165 -116.845L51.6975 -117.724ZM377.866 208.885L51.6975 -117.724L50.8166 -116.845L376.985 209.765L377.866 208.885ZM378.306 209.325L377.866 208.885L376.985 209.765L377.425 210.205L378.306 209.325ZM378.307 208.445L377.426 209.325L378.306 210.206L379.187 209.326L378.307 208.445ZM377.866 208.885L378.306 209.325L379.187 208.446L378.747 208.005L377.866 208.885ZM51.6975 -117.724L377.866 208.885L378.747 208.005L52.5784 -118.604L51.6975 -117.724ZM42.0142 -108.04L41.5743 -108.48L40.6934 -107.601L41.1333 -107.16L42.0142 -108.04ZM368.183 218.569L42.0142 -108.04L41.1333 -107.16L367.302 219.449L368.183 218.569ZM368.623 219.01L368.183 218.569L367.302 219.449L367.742 219.889L368.623 219.01ZM367.741 220.77L368.622 219.89L367.743 219.009L366.862 219.889L367.741 220.77ZM366.421 220.329L366.861 220.769L367.742 219.889L367.302 219.449L366.421 220.329ZM40.2523 -106.281L366.421 220.329L367.302 219.449L41.1333 -107.16L40.2523 -106.281ZM39.8125 -106.721L40.2523 -106.281L41.1333 -107.16L40.6934 -107.601L39.8125 -106.721ZM40.694 -108.481L39.813 -107.601L40.6928 -106.72L41.5737 -107.6L40.694 -108.481ZM30.1292 -97.0367L30.569 -96.5962L31.45 -97.476L31.0101 -97.9165L30.1292 -97.0367ZM30.1286 -96.1564L31.0095 -97.0361L30.1298 -97.9171L29.2488 -97.0373L30.1286 -96.1564ZM30.569 -96.5963L30.1292 -97.0367L29.2482 -96.157L29.6881 -95.7165L30.569 -96.5963ZM356.738 230.013L30.569 -96.5963L29.6881 -95.7165L355.857 230.893L356.738 230.013ZM357.178 230.453L356.738 230.013L355.857 230.893L356.297 231.333L357.178 230.453ZM357.178 229.573L356.297 230.453L357.177 231.334L358.058 230.454L357.178 229.573ZM356.738 230.013L357.178 230.453L358.059 229.574L357.619 229.133L356.738 230.013ZM30.569 -96.5962L356.738 230.013L357.619 229.133L31.45 -97.476L30.569 -96.5962ZM20.8858 -86.9118L20.4459 -87.3523L19.5649 -86.4725L20.0048 -86.032L20.8858 -86.9118ZM347.055 239.697L20.8858 -86.9118L20.0048 -86.032L346.174 240.577L347.055 239.697ZM347.495 240.138L347.055 239.697L346.174 240.577L346.614 241.018L347.495 240.138ZM346.613 241.898L347.494 241.018L346.614 240.137L345.733 241.017L346.613 241.898ZM345.293 241.457L345.733 241.897L346.614 241.018L346.174 240.577L345.293 241.457ZM19.1239 -85.1523L345.293 241.457L346.174 240.577L20.0048 -86.032L19.1239 -85.1523ZM18.684 -85.5927L19.1239 -85.1523L20.0048 -86.032L19.5649 -86.4725L18.684 -85.5927ZM19.5655 -87.3528L18.6846 -86.4731L19.5643 -85.5921L20.4453 -86.4719L19.5655 -87.3528ZM8.99899 -75.9083L9.43887 -75.4678L10.3198 -76.3476L9.87993 -76.788L8.99899 -75.9083ZM8.9984 -75.0279L9.87934 -75.9077L8.99958 -76.7886L8.11864 -75.9089L8.9984 -75.0279ZM9.43887 -75.4678L8.99899 -75.9083L8.11805 -75.0285L8.55793 -74.5881L9.43887 -75.4678ZM335.608 251.141L9.43887 -75.4678L8.55793 -74.5881L334.727 252.021L335.608 251.141ZM336.048 251.582L335.608 251.141L334.727 252.021L335.167 252.462L336.048 251.582ZM336.048 250.701L335.167 251.581L336.047 252.462L336.928 251.582L336.048 250.701ZM335.608 251.141L336.048 251.582L336.929 250.702L336.489 250.262L335.608 251.141ZM9.43887 -75.4678L335.608 251.141L336.489 250.262L10.3198 -76.3476L9.43887 -75.4678ZM-0.242686 -65.7833L-0.682563 -66.2238L-1.5635 -65.3441L-1.12362 -64.9036L-0.242686 -65.7833ZM325.926 260.826L-0.242686 -65.7833L-1.12362 -64.9036L325.045 261.705L325.926 260.826ZM326.366 261.266L325.926 260.826L325.045 261.705L325.485 262.146L326.366 261.266ZM325.485 263.026L326.366 262.147L325.486 261.266L324.605 262.145L325.485 263.026ZM324.164 262.585L324.604 263.026L325.485 262.146L325.045 261.706L324.164 262.585ZM-2.00456 -64.0238L324.164 262.585L325.045 261.706L-1.12362 -64.9036L-2.00456 -64.0238ZM-2.44444 -64.4643L-2.00456 -64.0238L-1.12362 -64.9036L-1.5635 -65.3441L-2.44444 -64.4643ZM-1.56291 -66.2244L-2.44385 -65.3446L-1.56409 -64.4637L-0.683155 -65.3435L-1.56291 -66.2244ZM-12.1295 -54.78L-11.6896 -54.3396L-10.8086 -55.2193L-11.2485 -55.6598L-12.1295 -54.78ZM-12.13 -53.8997L-11.2491 -54.7795L-12.1289 -55.6604L-13.0098 -54.7806L-12.13 -53.8997ZM-11.6896 -54.3396L-12.1295 -54.78L-13.0104 -53.9003L-12.5705 -53.4598L-11.6896 -54.3396ZM314.479 272.27L-11.6896 -54.3396L-12.5705 -53.4598L313.598 273.149L314.479 272.27ZM314.919 272.71L314.479 272.27L313.598 273.149L314.038 273.59L314.919 272.71ZM314.92 271.83L314.039 272.709L314.919 273.59L315.8 272.711L314.92 271.83ZM314.479 272.27L314.919 272.71L315.8 271.83L315.36 271.39L314.479 272.27ZM-11.6896 -54.3396L314.479 272.27L315.36 271.39L-10.8086 -55.2193L-11.6896 -54.3396ZM-21.3711 -44.6551L-21.811 -45.0956L-22.6919 -44.2158L-22.2521 -43.7754L-21.3711 -44.6551ZM304.798 281.954L-21.3711 -44.6551L-22.2521 -43.7754L303.917 282.834L304.798 281.954ZM305.238 282.394L304.798 281.954L303.917 282.834L304.357 283.274L305.238 282.394ZM304.356 284.155L305.237 283.275L304.357 282.394L303.476 283.274L304.356 284.155ZM303.036 283.713L303.476 284.154L304.357 283.274L303.917 282.834L303.036 283.713ZM-23.133 -42.8956L303.036 283.713L303.917 282.834L-22.2521 -43.7754L-23.133 -42.8956ZM-23.5729 -43.3361L-23.133 -42.8956L-22.2521 -43.7754L-22.6919 -44.2158L-23.5729 -43.3361ZM-22.6914 -45.0962L-23.5723 -44.2164L-22.6925 -43.3355L-21.8116 -44.2152L-22.6914 -45.0962ZM-33.2579 -33.6516L-32.818 -33.2111L-31.9371 -34.0909L-32.377 -34.5313L-33.2579 -33.6516ZM-33.2585 -32.7712L-32.3776 -33.651L-33.2573 -34.532L-34.1383 -33.6522L-33.2585 -32.7712ZM-32.818 -33.2111L-33.2579 -33.6516L-34.1388 -32.7718L-33.699 -32.3314L-32.818 -33.2111ZM293.351 293.398L-32.818 -33.2111L-33.699 -32.3314L292.47 294.278L293.351 293.398ZM293.791 293.838L293.351 293.398L292.47 294.278L292.91 294.718L293.791 293.838ZM293.791 292.958L292.91 293.838L293.79 294.719L294.671 293.839L293.791 292.958ZM293.351 293.398L293.791 293.838L294.672 292.959L294.232 292.518L293.351 293.398ZM-32.818 -33.2111L293.351 293.398L294.232 292.518L-31.9371 -34.0909L-32.818 -33.2111ZM-42.4996 -23.5269L-42.9394 -23.9673L-43.8204 -23.0876L-43.3805 -22.6471L-42.4996 -23.5269ZM283.669 303.082L-42.4996 -23.5269L-43.3805 -22.6471L282.788 303.962L283.669 303.082ZM284.109 303.523L283.669 303.082L282.788 303.962L283.228 304.402L284.109 303.523ZM283.228 305.283L284.109 304.403L283.229 303.522L282.348 304.402L283.228 305.283ZM281.907 304.842L282.347 305.282L283.228 304.402L282.788 303.962L281.907 304.842ZM-44.2615 -21.7674L281.907 304.842L282.788 303.962L-43.3805 -22.6471L-44.2615 -21.7674ZM-44.7013 -22.2078L-44.2615 -21.7674L-43.3805 -22.6471L-43.8204 -23.0876L-44.7013 -22.2078ZM-43.8198 -23.9679L-44.7007 -23.0882L-43.821 -22.2072L-42.9401 -23.087L-43.8198 -23.9679ZM-54.3863 -12.5232L-53.9465 -12.0827L-53.0655 -12.9624L-53.5054 -13.4029L-54.3863 -12.5232ZM-54.3869 -11.6428L-53.506 -12.5226L-54.3857 -13.4035L-55.2667 -12.5238L-54.3869 -11.6428ZM-53.9465 -12.0827L-54.3864 -12.5232L-55.2673 -11.6434L-54.8274 -11.2029L-53.9465 -12.0827ZM272.222 314.526L-53.9465 -12.0827L-54.8274 -11.2029L271.342 315.406L272.222 314.526ZM272.662 314.967L272.222 314.526L271.342 315.406L271.781 315.847L272.662 314.967ZM272.663 314.087L271.782 314.966L272.662 315.847L273.543 314.967L272.663 314.087ZM272.222 314.526L272.662 314.967L273.543 314.087L273.103 313.647L272.222 314.526ZM-53.9465 -12.0827L272.222 314.526L273.103 313.647L-53.0655 -12.9624L-53.9465 -12.0827ZM-63.628 -2.3982L-64.0679 -2.83867L-64.9488 -1.95893L-64.509 -1.51846L-63.628 -2.3982ZM262.541 324.211L-63.628 -2.3982L-64.509 -1.51845L261.66 325.091L262.541 324.211ZM262.981 324.651L262.541 324.211L261.66 325.091L262.1 325.531L262.981 324.651ZM262.099 326.411L262.98 325.532L262.1 324.651L261.219 325.531L262.099 326.411ZM260.779 325.97L261.219 326.411L262.1 325.531L261.66 325.091L260.779 325.97ZM-65.3899 -0.638701L260.779 325.97L261.66 325.091L-64.509 -1.51845L-65.3899 -0.638701ZM-65.8298 -1.07916L-65.3899 -0.638695L-64.509 -1.51846L-64.9489 -1.95892L-65.8298 -1.07916ZM-64.9482 -2.83928L-65.8292 -1.95952L-64.9495 -1.07857L-64.0685 -1.95833L-64.9482 -2.83928ZM-75.5131 8.60486L-75.0732 9.04533L-74.1922 8.16559L-74.6321 7.72511L-75.5131 8.60486ZM-75.5137 9.48522L-74.6327 8.60546L-75.5125 7.72451L-76.3934 8.60427L-75.5137 9.48522ZM-75.0732 9.04533L-75.5131 8.60487L-76.394 9.48463L-75.9541 9.92509L-75.0732 9.04533ZM251.096 335.654L-75.0732 9.04534L-75.9541 9.92509L250.215 336.534L251.096 335.654ZM251.536 336.095L251.096 335.654L250.215 336.534L250.655 336.975L251.536 336.095ZM251.536 335.215L250.655 336.094L251.535 336.975L252.416 336.095L251.536 335.215ZM251.096 335.654L251.536 336.095L252.417 335.215L251.977 334.775L251.096 335.654ZM-75.0732 9.04534L251.096 335.654L251.977 334.775L-74.1923 8.16559L-75.0732 9.04534ZM-84.7565 18.7298L-85.1963 18.2893L-86.0773 19.1691L-85.6374 19.6096L-84.7565 18.7298ZM241.412 345.339L-84.7565 18.7298L-85.6374 19.6096L240.531 346.219L241.412 345.339ZM241.852 345.779L241.412 345.339L240.531 346.219L240.971 346.659L241.852 345.779ZM240.971 347.539L241.852 346.66L240.972 345.779L240.091 346.659L240.971 347.539ZM239.651 347.098L240.09 347.539L240.971 346.659L240.532 346.219L239.651 347.098ZM-86.5184 20.4893L239.651 347.098L240.532 346.219L-85.6374 19.6096L-86.5184 20.4893ZM-86.9582 20.0488L-86.5183 20.4893L-85.6374 19.6096L-86.0773 19.1691L-86.9582 20.0488ZM-86.0767 18.2887L-86.9576 19.1685L-86.0779 20.0494L-85.1969 19.1697L-86.0767 18.2887ZM-96.6415 29.7333L-96.2016 30.1738L-95.3207 29.294L-95.7606 28.8536L-96.6415 29.7333ZM-96.6421 30.6137L-95.7612 29.7339L-96.6409 28.8529L-97.5219 29.7327L-96.6421 30.6137ZM-96.2016 30.1738L-96.6415 29.7333L-97.5224 30.6131L-97.0826 31.0535L-96.2016 30.1738ZM229.967 356.783L-96.2016 30.1738L-97.0826 31.0535L229.086 357.663L229.967 356.783ZM230.407 357.223L229.967 356.783L229.086 357.663L229.526 358.103L230.407 357.223ZM230.408 356.343L229.527 357.223L230.407 358.104L231.288 357.224L230.408 356.343ZM229.967 356.783L230.407 357.223L231.288 356.344L230.848 355.903L229.967 356.783ZM-96.2016 30.1738L229.967 356.783L230.848 355.903L-95.3207 29.294L-96.2016 30.1738ZM-105.885 39.8587L-106.325 39.4182L-107.206 40.298L-106.766 40.7384L-105.885 39.8587ZM220.284 366.468L-105.885 39.8587L-106.766 40.7384L219.403 367.348L220.284 366.468ZM220.724 366.908L220.284 366.468L219.403 367.348L219.843 367.788L220.724 366.908ZM219.842 368.668L220.723 367.789L219.844 366.908L218.963 367.787L219.842 368.668ZM218.522 368.227L218.962 368.668L219.843 367.788L219.403 367.348L218.522 368.227ZM-107.647 41.6182L218.522 368.227L219.403 367.348L-106.766 40.7384L-107.647 41.6182ZM-108.087 41.1777L-107.647 41.6182L-106.766 40.7384L-107.206 40.298L-108.087 41.1777ZM-107.205 39.4176L-108.086 40.2974L-107.206 41.1783L-106.325 40.2986L-107.205 39.4176ZM-117.77 50.8617L-117.33 51.3022L-116.449 50.4225L-116.889 49.982L-117.77 50.8617ZM-117.771 51.7421L-116.89 50.8624L-117.769 49.9814L-118.65 50.8612L-117.771 51.7421ZM-117.33 51.3022L-117.77 50.8618L-118.651 51.7415L-118.211 52.182L-117.33 51.3022ZM208.839 377.911L-117.33 51.3022L-118.211 52.182L207.958 378.791L208.839 377.911ZM209.279 378.352L208.839 377.911L207.958 378.791L208.398 379.232L209.279 378.352ZM209.279 377.471L208.398 378.351L209.278 379.232L210.159 378.352L209.279 377.471ZM208.839 377.911L209.279 378.352L210.16 377.472L209.72 377.032L208.839 377.911ZM-117.33 51.3022L208.839 377.911L209.72 377.032L-116.449 50.4225L-117.33 51.3022Z" fill="#262626"/>
</g>
</svg>
