<svg width="206" height="206" viewBox="0 0 206 206" fill="none" xmlns="http://www.w3.org/2000/svg">
<circle cx="3.54537" cy="3.54537" r="3.54537" fill="#166534"/>
<circle cx="28.362" cy="3.54561" r="3.54537" fill="#166534"/>
<circle cx="53.1785" cy="3.54561" r="3.54537" fill="#166534"/>
<circle cx="77.9971" cy="3.54561" r="3.54537" fill="#166534"/>
<circle cx="102.814" cy="3.54561" r="3.54537" fill="#166534"/>
<circle cx="127.63" cy="3.54561" r="3.54537" fill="#166534"/>
<circle cx="152.447" cy="3.54561" r="3.54537" fill="#166534"/>
<circle cx="177.264" cy="3.54561" r="3.54537" fill="#166534"/>
<circle cx="202.082" cy="3.54561" r="3.54537" fill="#166534"/>
<circle cx="3.54537" cy="28.3627" r="3.54537" fill="#166534"/>
<circle cx="28.362" cy="28.3627" r="3.54537" fill="#166534"/>
<circle cx="53.1785" cy="28.3627" r="3.54537" fill="#166534"/>
<circle cx="77.9971" cy="28.3627" r="3.54537" fill="#166534"/>
<circle cx="102.814" cy="28.3627" r="3.54537" fill="#166534"/>
<circle cx="127.63" cy="28.3627" r="3.54537" fill="#166534"/>
<circle cx="152.447" cy="28.3627" r="3.54537" fill="#166534"/>
<circle cx="177.264" cy="28.3627" r="3.54537" fill="#166534"/>
<circle cx="202.082" cy="28.3627" r="3.54537" fill="#166534"/>
<circle cx="3.54537" cy="53.1795" r="3.54537" fill="#166534"/>
<circle cx="28.362" cy="53.1795" r="3.54537" fill="#166534"/>
<circle cx="53.1785" cy="53.1795" r="3.54537" fill="#166534"/>
<circle cx="77.9971" cy="53.1795" r="3.54537" fill="#166534"/>
<circle cx="102.814" cy="53.1795" r="3.54537" fill="#166534"/>
<circle cx="127.63" cy="53.1795" r="3.54537" fill="#166534"/>
<circle cx="152.447" cy="53.1795" r="3.54537" fill="#166534"/>
<circle cx="177.264" cy="53.1795" r="3.54537" fill="#166534"/>
<circle cx="202.082" cy="53.1795" r="3.54537" fill="#166534"/>
<circle cx="3.54537" cy="77.9969" r="3.54537" fill="#166534"/>
<circle cx="28.362" cy="77.9969" r="3.54537" fill="#166534"/>
<circle cx="53.1785" cy="77.9969" r="3.54537" fill="#166534"/>
<circle cx="77.9971" cy="77.9969" r="3.54537" fill="#166534"/>
<circle cx="102.814" cy="77.9969" r="3.54537" fill="#166534"/>
<circle cx="127.63" cy="77.9969" r="3.54537" fill="#166534"/>
<circle cx="152.447" cy="77.9969" r="3.54537" fill="#166534"/>
<circle cx="177.264" cy="77.9969" r="3.54537" fill="#166534"/>
<circle cx="202.082" cy="77.9969" r="3.54537" fill="#166534"/>
<circle cx="3.54537" cy="102.814" r="3.54537" fill="#166534"/>
<circle cx="28.362" cy="102.814" r="3.54537" fill="#166534"/>
<circle cx="53.1785" cy="102.814" r="3.54537" fill="#166534"/>
<circle cx="77.9971" cy="102.814" r="3.54537" fill="#166534"/>
<circle cx="102.814" cy="102.814" r="3.54537" fill="#166534"/>
<circle cx="127.63" cy="102.814" r="3.54537" fill="#166534"/>
<circle cx="152.447" cy="102.814" r="3.54537" fill="#166534"/>
<circle cx="177.264" cy="102.814" r="3.54537" fill="#166534"/>
<circle cx="202.082" cy="102.814" r="3.54537" fill="#166534"/>
<circle cx="3.54537" cy="127.631" r="3.54537" fill="#166534"/>
<circle cx="28.362" cy="127.631" r="3.54537" fill="#166534"/>
<circle cx="53.1785" cy="127.631" r="3.54537" fill="#166534"/>
<circle cx="77.9971" cy="127.631" r="3.54537" fill="#166534"/>
<circle cx="102.814" cy="127.631" r="3.54537" fill="#166534"/>
<circle cx="127.63" cy="127.631" r="3.54537" fill="#166534"/>
<circle cx="152.447" cy="127.631" r="3.54537" fill="#166534"/>
<circle cx="177.264" cy="127.631" r="3.54537" fill="#166534"/>
<circle cx="202.082" cy="127.631" r="3.54537" fill="#166534"/>
<circle cx="3.54537" cy="152.448" r="3.54537" fill="#166534"/>
<circle cx="28.362" cy="152.448" r="3.54537" fill="#166534"/>
<circle cx="53.1785" cy="152.448" r="3.54537" fill="#166534"/>
<circle cx="77.9971" cy="152.448" r="3.54537" fill="#166534"/>
<circle cx="102.814" cy="152.448" r="3.54537" fill="#166534"/>
<circle cx="127.63" cy="152.448" r="3.54537" fill="#166534"/>
<circle cx="152.447" cy="152.448" r="3.54537" fill="#166534"/>
<circle cx="177.264" cy="152.448" r="3.54537" fill="#166534"/>
<circle cx="202.082" cy="152.448" r="3.54537" fill="#166534"/>
<circle cx="3.54537" cy="177.265" r="3.54537" fill="#166534"/>
<circle cx="28.362" cy="177.265" r="3.54537" fill="#166534"/>
<circle cx="53.1785" cy="177.265" r="3.54537" fill="#166534"/>
<circle cx="77.9971" cy="177.265" r="3.54537" fill="#166534"/>
<circle cx="102.814" cy="177.265" r="3.54537" fill="#166534"/>
<circle cx="127.63" cy="177.265" r="3.54537" fill="#166534"/>
<circle cx="152.447" cy="177.265" r="3.54537" fill="#166534"/>
<circle cx="177.264" cy="177.265" r="3.54537" fill="#166534"/>
<circle cx="202.082" cy="177.265" r="3.54537" fill="#166534"/>
<circle cx="3.54537" cy="202.082" r="3.54537" fill="#166534"/>
<circle cx="28.362" cy="202.082" r="3.54537" fill="#166534"/>
<circle cx="53.1785" cy="202.082" r="3.54537" fill="#166534"/>
<circle cx="77.9971" cy="202.082" r="3.54537" fill="#166534"/>
<circle cx="102.814" cy="202.082" r="3.54537" fill="#166534"/>
<circle cx="127.63" cy="202.082" r="3.54537" fill="#166534"/>
<circle cx="152.447" cy="202.082" r="3.54537" fill="#166534"/>
<circle cx="177.264" cy="202.082" r="3.54537" fill="#166534"/>
<circle cx="202.082" cy="202.082" r="3.54537" fill="#166534"/>
</svg>
