<svg width="50" height="50" viewBox="0 0 50 50" fill="none" xmlns="http://www.w3.org/2000/svg">
<path d="M22.4999 5C19.8477 5 17.3042 6.05357 15.4288 7.92893C13.5535 9.8043 12.4999 12.3478 12.4999 15C12.4999 17.6522 13.5535 20.1957 15.4288 22.0711C17.3042 23.9464 19.8477 25 22.4999 25C25.1521 25 27.6956 23.9464 29.571 22.0711C31.4463 20.1957 32.4999 17.6522 32.4999 15C32.4999 12.3478 31.4463 9.8043 29.571 7.92893C27.6956 6.05357 25.1521 5 22.4999 5ZM14.9999 15C14.9999 13.0109 15.7901 11.1032 17.1966 9.6967C18.6031 8.29018 20.5108 7.5 22.4999 7.5C24.489 7.5 26.3967 8.29018 27.8032 9.6967C29.2097 11.1032 29.9999 13.0109 29.9999 15C29.9999 16.9891 29.2097 18.8968 27.8032 20.3033C26.3967 21.7098 24.489 22.5 22.4999 22.5C20.5108 22.5 18.6031 21.7098 17.1966 20.3033C15.7901 18.8968 14.9999 16.9891 14.9999 15ZM10.0224 27.5C9.364 27.4974 8.71155 27.6247 8.10247 27.8748C7.49339 28.1249 6.93967 28.4927 6.47306 28.9572C6.00644 29.4217 5.63612 29.9738 5.38332 30.5818C5.13053 31.1897 5.00023 31.8416 4.99991 32.5C4.99991 36.7275 7.08241 39.915 10.3374 41.9925C13.5424 44.035 17.8624 45 22.4999 45C24.8874 45 27.1899 44.745 29.2999 44.2175L27.3499 42.0825C25.8399 42.3575 24.2124 42.5 22.4999 42.5C18.1624 42.5 14.3574 41.59 11.6824 39.8825C9.05741 38.2075 7.49991 35.775 7.49991 32.5C7.49991 31.1175 8.61991 30 10.0224 30H23.2474C23.6667 29.0699 24.2502 28.2231 24.9699 27.5H10.0199H10.0224ZM36.2474 30.0075L34.6774 28.775C33.4956 27.8462 32.0076 27.3961 30.5091 27.5141C29.0106 27.6322 27.6114 28.3098 26.5896 29.4122C25.5678 30.5146 24.9983 31.9611 24.9942 33.4643C24.99 34.9674 25.5517 36.417 26.5674 37.525L35.3249 47.1C35.442 47.2281 35.5845 47.3304 35.7434 47.4004C35.9022 47.4704 36.0738 47.5065 36.2474 47.5065C36.421 47.5065 36.5926 47.4704 36.7515 47.4004C36.9103 47.3304 37.0528 47.2281 37.1699 47.1L45.9299 37.525C46.9456 36.417 47.5073 34.9674 47.5032 33.4643C47.499 31.9611 46.9295 30.5146 45.9077 29.4122C44.8859 28.3098 43.4867 27.6322 41.9882 27.5141C40.4898 27.3961 39.0017 27.8462 37.8199 28.775L36.2474 30.0075Z" fill="#166534"/>
</svg>
