<svg width="109" height="130" viewBox="0 0 109 130" fill="none" xmlns="http://www.w3.org/2000/svg">
<path d="M1.04924 114.237C6.14401 111.525 11.3599 109.265 16.7742 107.353L16.7867 107.341C16.8708 107.311 16.9549 107.28 17.039 107.25C18.2387 106.837 18.6471 108.726 17.7043 109.318C14.2889 111.457 9.63085 112.767 6.21539 114.906C23.6234 115.027 43.3208 115.403 58.5743 105.678C73.9503 95.8763 81.6601 78.8721 76.9395 61.2408C62.1648 61.1486 47.1855 52.9954 38.1176 41.1592C34.4331 36.3391 29.1923 25.9016 37.9758 23.2001C46.2572 20.6448 57.2665 29.6396 62.8906 34.8658C69.8908 41.3654 75.4973 49.8994 78.3999 59.0886C79.5135 59.075 80.6072 59.0107 81.681 58.8957C91.2509 57.8656 101.393 52.7826 104.48 42.5121C108.403 29.4635 99.639 16.9615 92.4599 7.28667C92.0742 6.76522 92.799 6.10694 93.1972 6.61704C100.196 15.5154 107.513 25.5576 106.916 37.7769C106.421 47.8267 99.788 55.1699 91.1269 58.6435C87.2243 60.2037 83.1386 61.0242 79.0261 61.2153C81.7892 71.5747 81.0253 82.6373 74.886 92.5031C60.449 115.675 32.7106 117.929 8.54761 117.933L14.1398 121.078C15.3235 121.746 14.133 123.55 12.9602 122.895C10.0056 121.243 7.05196 119.578 4.10905 117.927C3.96839 117.929 2.99763 117.23 2.85782 117.22C1.97137 116.488 4.10905 117.927 2.80146 117.188C2.18093 116.845 1.56126 116.49 0.940732 116.148C0.197111 115.722 0.405534 114.569 1.04924 114.237ZM74.8601 55.2268C71.1861 46.6924 65.214 39.2131 58.1171 33.6041C54.5187 30.7589 50.514 28.2026 46.3127 26.4555C44.6505 25.763 42.777 25.079 40.9743 25.0646C35.5195 25.0181 34.4553 30.2514 36.4431 34.7085C42.9521 49.3391 60.9291 58.5203 76.3167 59.0652C75.8894 57.7902 75.4155 56.5116 74.8601 55.2268Z" fill="#166534"/>
</svg>
