<svg width="143" height="143" viewBox="0 0 143 143" fill="none" xmlns="http://www.w3.org/2000/svg">
<circle cx="71.0558" cy="71.0558" r="70.7109" fill="white" stroke="white" stroke-width="0.689862"/>
<circle cx="71.0552" cy="71.0559" r="38.8244" fill="#166534"/>
<path d="M82.9071 64.5244L56.8441 79.5719" stroke="white" stroke-width="1.77799" stroke-linecap="round" stroke-linejoin="round"/>
<path d="M79.4559 81.7429C76.6305 76.849 83.0134 64.4636 83.0134 64.4636C83.0134 64.4636 69.0958 63.7987 66.2703 58.9047" stroke="white" stroke-width="1.77799" stroke-linecap="round" stroke-linejoin="round"/>
<path d="M15.4445 63.5563L9.36911 62.4886L10.0642 58.5335L10.7981 58.6625L10.2435 61.8184L12.168 62.1566L12.694 59.1638L13.428 59.2928L12.902 62.2856L14.851 62.6282L15.4056 59.4722L16.1396 59.6012L15.4445 63.5563Z" fill="#262626"/>
<path d="M19.4819 47.7868L18.188 45.3842L15.4988 45.774L15.9155 44.9456L18.2453 44.6253L18.0333 45.0469L16.894 43.0002L17.3144 42.1643L18.6047 44.5558L21.2976 44.1771L20.8809 45.0055L18.5584 45.311L18.7668 44.8968L19.9061 46.9435L19.4819 47.7868Z" fill="#262626"/>
<path d="M28.9628 35.1491L24.5196 30.9422L25.0377 30.3951L25.7351 31.0554L25.5285 30.9966C25.45 30.6942 25.4533 30.3857 25.5384 30.071C25.6195 29.7525 25.7872 29.459 26.0415 29.1904C26.3299 28.8858 26.6621 28.6834 27.0381 28.5834C27.4179 28.4793 27.8025 28.4785 28.1919 28.5811C28.5772 28.68 28.9322 28.8831 29.2569 29.1905C29.5735 29.4903 29.7937 29.8318 29.9174 30.215C30.0411 30.5981 30.0614 30.9822 29.9782 31.3671C29.8988 31.748 29.7129 32.0928 29.4207 32.4014C29.174 32.662 28.8901 32.8454 28.5689 32.9518C28.2515 33.0542 27.9316 33.0629 27.6091 32.978L27.5983 32.7967L29.4922 34.59L28.9628 35.1491ZM28.8398 31.9312C29.0333 31.7268 29.1559 31.4969 29.2075 31.2417C29.2591 30.9865 29.2404 30.7332 29.1516 30.4819C29.0625 30.2227 28.9098 29.9906 28.6933 29.7857C28.4688 29.5732 28.2288 29.4333 27.9732 29.3661C27.7173 29.2911 27.4634 29.2863 27.2114 29.3517C26.9554 29.4134 26.7306 29.5464 26.537 29.7509C26.3435 29.9553 26.219 30.1871 26.1636 30.4463C26.112 30.7015 26.1288 30.9607 26.2141 31.2239C26.2992 31.4793 26.4519 31.7113 26.6724 31.9201C26.8888 32.125 27.1289 32.2649 27.3925 32.3397C27.656 32.4067 27.9137 32.4074 28.1657 32.342C28.4215 32.2725 28.6462 32.1356 28.8398 31.9312Z" fill="#262626"/>
<path d="M40.2425 22.9192L36.9199 17.6046L37.5728 17.1964L40.8954 22.511L40.2425 22.9192Z" fill="#262626"/>
<path d="M52.4361 16.9572C52.0254 17.0864 51.6244 17.1084 51.233 17.0232C50.84 16.9327 50.4931 16.7496 50.1922 16.4739C49.8914 16.1982 49.6739 15.8471 49.5398 15.4206C49.4056 14.9941 49.3811 14.5852 49.4663 14.1938C49.5568 13.8008 49.7373 13.4547 50.0077 13.1555C50.2782 12.8564 50.6214 12.6413 51.0373 12.5105C51.448 12.3813 51.8499 12.3619 52.2429 12.4524C52.6343 12.5376 52.9769 12.7163 53.2708 12.9884C53.57 13.2588 53.7875 13.6099 53.9233 14.0417C54.0591 14.4735 54.08 14.8893 53.9859 15.2893C53.8902 15.6839 53.7071 16.0309 53.4366 16.33C53.1698 16.6223 52.8363 16.8313 52.4361 16.9572ZM52.2125 16.2464C52.4758 16.1636 52.692 16.0232 52.8612 15.8253C53.0357 15.6258 53.1471 15.3911 53.1953 15.1213C53.2488 14.8499 53.2308 14.572 53.1414 14.2877C53.0503 13.9981 52.9068 13.7626 52.7108 13.5812C52.5185 13.3928 52.2937 13.2668 52.0364 13.2031C51.7827 13.1324 51.5242 13.1385 51.2609 13.2213C50.9924 13.3058 50.7717 13.4505 50.5989 13.6553C50.4297 13.8532 50.3175 14.0852 50.2624 14.3514C50.2055 14.6123 50.2227 14.8875 50.3138 15.1771C50.4032 15.4615 50.5476 15.6996 50.7468 15.8915C50.9461 16.0835 51.1717 16.2121 51.4237 16.2775C51.681 16.3412 51.944 16.3308 52.2125 16.2464Z" fill="#262626"/>
<path d="M66.7343 13.8551L66.5644 9.3955L67.3173 9.36681L67.3485 10.1859L67.2613 10.0732C67.3565 9.81551 67.5093 9.62187 67.7198 9.49233C67.9301 9.35726 68.1896 9.28384 68.4985 9.27207L68.7716 9.26166L68.7993 9.98976L68.4104 10.0046C68.096 10.0166 67.8461 10.1255 67.6606 10.3314C67.4749 10.5319 67.3889 10.8113 67.4026 11.1699L67.5038 13.8258L66.7343 13.8551Z" fill="#262626"/>
<path d="M81.5609 14.8402C81.1416 14.7426 80.7911 14.5562 80.5094 14.281C80.2277 14.0058 80.0328 13.6743 79.9247 13.2864C79.8178 12.8932 79.8144 12.4815 79.9145 12.0514C80.0158 11.6159 80.1972 11.2501 80.4588 10.9539C80.7258 10.659 81.0404 10.4516 81.4026 10.3319C81.7715 10.208 82.1548 10.1923 82.5527 10.2849C82.8752 10.3599 83.1464 10.4854 83.3662 10.6612C83.5926 10.8329 83.7687 11.0382 83.8945 11.2771C84.0269 11.5119 84.1094 11.7663 84.142 12.0403C84.1813 12.3101 84.1696 12.5794 84.1071 12.8482C84.0933 12.9074 84.0723 12.9733 84.044 13.0461C84.0224 13.1147 83.9987 13.1801 83.9729 13.2421L80.4085 12.4128L80.5585 11.7677L83.6875 12.4956L83.2652 12.7034C83.3786 12.4351 83.4099 12.1788 83.359 11.9346C83.3081 11.6904 83.1982 11.4807 83.0293 11.3054C82.8604 11.1301 82.6496 11.013 82.397 10.9542C82.1443 10.8955 81.8981 10.9062 81.6584 10.9864C81.4187 11.0667 81.2116 11.214 81.037 11.4284C80.8691 11.6387 80.7577 11.9104 80.7029 12.2433C80.6076 12.5555 80.591 12.8463 80.653 13.1158C80.7216 13.3811 80.8505 13.6066 81.0396 13.7923C81.2354 13.9739 81.465 14.0953 81.7285 14.1566C82.0188 14.2241 82.2791 14.2138 82.5092 14.1257C82.7394 14.0376 82.9407 13.903 83.1132 13.7221L83.6672 14.1911C83.5349 14.37 83.3579 14.5215 83.1364 14.6456C82.9214 14.7656 82.679 14.8453 82.4092 14.8845C82.1448 14.925 81.862 14.9102 81.5609 14.8402Z" fill="#262626"/>
<path d="M104.279 24.6559L108.364 20.0339L108.873 20.4836L108.227 26.5652L107.976 26.3871L111.299 22.6275L111.913 23.1704L107.828 27.7923L107.319 27.3427L107.999 21.2472L108.232 21.4088L104.887 25.1932L104.279 24.6559Z" fill="#262626"/>
<path d="M117.829 39.682C117.611 39.3105 117.5 38.9244 117.496 38.5239C117.497 38.1206 117.598 37.7416 117.8 37.3869C118.001 37.0322 118.295 36.7419 118.681 36.5161C119.067 36.2902 119.46 36.1752 119.861 36.1711C120.264 36.1717 120.641 36.2705 120.993 36.4674C121.345 36.6644 121.631 36.951 121.852 37.3274C122.069 37.699 122.178 38.0864 122.177 38.4897C122.181 38.8902 122.083 39.264 121.884 39.6112C121.687 39.9631 121.393 40.2534 121.002 40.482C120.612 40.7107 120.211 40.8237 119.8 40.8211C119.394 40.8157 119.015 40.7146 118.663 40.5176C118.319 40.3226 118.04 40.0441 117.829 39.682ZM118.472 39.3056C118.611 39.5438 118.796 39.7233 119.027 39.8442C119.26 39.9698 119.514 40.0261 119.787 40.0129C120.064 40.0046 120.331 39.9251 120.588 39.7746C120.85 39.6212 121.048 39.4288 121.181 39.1974C121.322 38.9679 121.394 38.7207 121.399 38.4557C121.411 38.1926 121.348 37.942 121.209 37.7038C121.066 37.4608 120.876 37.2779 120.638 37.1551C120.407 37.0343 120.156 36.9766 119.884 36.9822C119.617 36.9849 119.353 37.063 119.091 37.2164C118.834 37.3669 118.634 37.5607 118.491 37.7977C118.348 38.0347 118.273 38.2834 118.266 38.5436C118.261 38.8087 118.329 39.0627 118.472 39.3056Z" fill="#262626"/>
<path d="M124.524 54.1271L128.595 51.7418L128.764 52.5777L125.345 54.5103L125.294 54.2165L129.182 54.6473L129.327 55.3615L125.911 57.268L125.844 56.9775L129.747 57.4391L129.914 58.2669L125.236 57.6493L125.09 56.927L128.509 55.0367L128.555 55.2639L124.67 54.8494L124.524 54.1271Z" fill="#262626"/>
<path d="M125.852 78.244L131.927 79.3117L131.232 83.2668L130.498 83.1378L131.053 79.9819L129.128 79.6437L128.602 82.6365L127.868 82.5075L128.394 79.5147L126.445 79.1722L125.891 82.3281L125.157 82.1991L125.852 78.244Z" fill="#262626"/>
<path d="M121.814 94.0136L123.108 96.4161L125.797 96.0263L125.381 96.8548L123.051 97.1751L123.263 96.7534L124.402 98.8001L123.982 99.636L122.692 97.2446L119.999 97.6232L120.415 96.7948L122.738 96.4893L122.529 96.9035L121.39 94.8568L121.814 94.0136Z" fill="#262626"/>
<path d="M112.333 106.651L116.776 110.858L116.258 111.405L115.561 110.745L115.768 110.804C115.846 111.106 115.843 111.415 115.758 111.729C115.677 112.048 115.509 112.341 115.255 112.61C114.966 112.915 114.634 113.117 114.258 113.217C113.878 113.321 113.494 113.322 113.104 113.219C112.719 113.12 112.364 112.917 112.039 112.61C111.723 112.31 111.502 111.969 111.379 111.585C111.255 111.202 111.235 110.818 111.318 110.433C111.397 110.052 111.583 109.708 111.875 109.399C112.122 109.138 112.406 108.955 112.727 108.849C113.045 108.746 113.365 108.737 113.687 108.822L113.698 109.004L111.804 107.21L112.333 106.651ZM112.456 109.869C112.263 110.074 112.14 110.303 112.089 110.559C112.037 110.814 112.056 111.067 112.145 111.318C112.234 111.578 112.386 111.81 112.603 112.015C112.827 112.227 113.067 112.367 113.323 112.434C113.579 112.509 113.833 112.514 114.085 112.449C114.341 112.387 114.566 112.254 114.759 112.049C114.953 111.845 115.077 111.613 115.133 111.354C115.184 111.099 115.167 110.84 115.082 110.576C114.997 110.321 114.844 110.089 114.624 109.88C114.407 109.675 114.167 109.535 113.904 109.461C113.64 109.394 113.382 109.393 113.13 109.458C112.875 109.528 112.65 109.665 112.456 109.869Z" fill="#262626"/>
<path d="M101.054 118.881L104.376 124.196L103.723 124.604L100.401 119.289L101.054 118.881Z" fill="#262626"/>
<path d="M88.8601 124.843C89.2708 124.714 89.6718 124.692 90.0632 124.777C90.4562 124.868 90.8031 125.051 91.1039 125.326C91.4048 125.602 91.6223 125.953 91.7564 126.38C91.8906 126.806 91.9151 127.215 91.8298 127.607C91.7394 128 91.5589 128.346 91.2885 128.645C91.018 128.944 90.6748 129.159 90.2588 129.29C89.8481 129.419 89.4463 129.438 89.0533 129.348C88.6619 129.263 88.3193 129.084 88.0254 128.812C87.7262 128.542 87.5087 128.19 87.3729 127.759C87.2371 127.327 87.2162 126.911 87.3103 126.511C87.406 126.116 87.5891 125.769 87.8596 125.47C88.1264 125.178 88.4599 124.969 88.8601 124.843ZM89.0837 125.554C88.8204 125.637 88.6042 125.777 88.4349 125.975C88.2605 126.175 88.1491 126.409 88.1009 126.679C88.0474 126.95 88.0654 127.228 88.1548 127.513C88.2459 127.802 88.3894 128.038 88.5854 128.219C88.7777 128.407 89.0025 128.534 89.2598 128.597C89.5135 128.668 89.772 128.662 90.0352 128.579C90.3038 128.495 90.5245 128.35 90.6973 128.145C90.8665 127.947 90.9787 127.715 91.0338 127.449C91.0906 127.188 91.0735 126.913 90.9824 126.623C90.8929 126.339 90.7486 126.101 90.5493 125.909C90.3501 125.717 90.1245 125.588 89.8724 125.523C89.6151 125.459 89.3522 125.469 89.0837 125.554Z" fill="#262626"/>
<path d="M74.5618 127.945L74.7318 132.405L73.9789 132.434L73.9477 131.614L74.0348 131.727C73.9397 131.985 73.7869 132.178 73.5764 132.308C73.3661 132.443 73.1065 132.516 72.7976 132.528L72.5246 132.539L72.4969 131.811L72.8857 131.796C73.2001 131.784 73.4501 131.675 73.6356 131.469C73.8213 131.268 73.9073 130.989 73.8936 130.63L73.7924 127.975L74.5618 127.945Z" fill="#262626"/>
<path d="M59.7352 126.96C60.1546 127.058 60.5051 127.244 60.7868 127.519C61.0685 127.795 61.2634 128.126 61.3715 128.514C61.4783 128.907 61.4818 129.319 61.3817 129.749C61.2804 130.184 61.0989 130.55 60.8374 130.846C60.5704 131.141 60.2558 131.349 59.8936 131.468C59.5247 131.592 59.1414 131.608 58.7435 131.515C58.4209 131.44 58.1497 131.315 57.9299 131.139C57.7035 130.967 57.5274 130.762 57.4017 130.523C57.2693 130.288 57.1868 130.034 57.1542 129.76C57.1149 129.49 57.1266 129.221 57.1891 128.952C57.2029 128.893 57.2239 128.827 57.2521 128.754C57.2738 128.686 57.2975 128.62 57.3232 128.558L60.8877 129.387L60.7376 130.033L57.6086 129.305L58.031 129.097C57.9176 129.365 57.8863 129.622 57.9372 129.866C57.988 130.11 58.0979 130.32 58.2668 130.495C58.4357 130.67 58.6465 130.787 58.8992 130.846C59.1519 130.905 59.3981 130.894 59.6378 130.814C59.8775 130.734 60.0846 130.586 60.2592 130.372C60.4271 130.162 60.5385 129.89 60.5933 129.557C60.6886 129.245 60.7052 128.954 60.6432 128.685C60.5746 128.419 60.4457 128.194 60.2565 128.008C60.0607 127.826 59.8311 127.705 59.5677 127.644C59.2774 127.576 59.0171 127.587 58.7869 127.675C58.5567 127.763 58.3554 127.897 58.183 128.078L57.629 127.609C57.7613 127.43 57.9382 127.279 58.1598 127.155C58.3747 127.035 58.6171 126.955 58.8869 126.916C59.1514 126.875 59.4342 126.89 59.7352 126.96Z" fill="#262626"/>
<path d="M37.0171 117.144L32.932 121.766L32.4233 121.317L33.0689 115.235L33.3204 115.413L29.9976 119.173L29.3834 118.63L33.4684 114.008L33.9771 114.458L33.2972 120.553L33.0643 120.392L36.4091 116.607L37.0171 117.144Z" fill="#262626"/>
<path d="M23.4676 102.118C23.6851 102.49 23.796 102.876 23.8001 103.276C23.7995 103.68 23.6983 104.059 23.4966 104.413C23.2949 104.768 23.0011 105.058 22.6152 105.284C22.2293 105.51 21.8361 105.625 21.4356 105.629C21.0323 105.629 20.6547 105.53 20.3028 105.333C19.9509 105.136 19.6648 104.849 19.4445 104.473C19.2271 104.101 19.1186 103.714 19.1192 103.311C19.1151 102.91 19.2129 102.536 19.4126 102.189C19.6096 101.837 19.9034 101.547 20.294 101.318C20.6847 101.09 21.0854 100.977 21.4962 100.979C21.9023 100.985 22.2813 101.086 22.6332 101.283C22.9776 101.478 23.2557 101.756 23.4676 102.118ZM22.8245 102.495C22.6851 102.257 22.5001 102.077 22.2695 101.956C22.0361 101.831 21.7825 101.774 21.5087 101.787C21.2322 101.796 20.9653 101.875 20.7081 102.026C20.446 102.179 20.2485 102.372 20.1153 102.603C19.9746 102.832 19.9018 103.08 19.897 103.345C19.8847 103.608 19.9482 103.858 20.0877 104.097C20.2299 104.34 20.42 104.522 20.6582 104.645C20.8889 104.766 21.14 104.824 21.4118 104.818C21.6788 104.815 21.9433 104.737 22.2053 104.584C22.4626 104.433 22.6626 104.24 22.8053 104.003C22.948 103.766 23.0231 103.517 23.0307 103.257C23.0354 102.992 22.9667 102.738 22.8245 102.495Z" fill="#262626"/>
<path d="M16.7718 87.6732L12.7008 90.0585L12.5319 89.2226L15.951 87.29L16.002 87.5838L12.1137 87.1531L11.9694 86.4389L15.3854 84.5323L15.4525 84.8228L11.5496 84.3612L11.3824 83.5334L16.0601 84.151L16.2061 84.8733L12.7868 86.7636L12.7409 86.5364L16.6259 86.9509L16.7718 87.6732Z" fill="#262626"/>
</svg>
