<svg width="52" height="52" viewBox="0 0 52 52" fill="none" xmlns="http://www.w3.org/2000/svg">
<path d="M38.9993 13.9544C38.6519 13.3541 38.1897 12.828 37.639 12.4063C37.0884 11.9846 36.46 11.6755 35.7899 11.4966C35.1214 11.3135 34.423 11.2659 33.7358 11.3566C33.0486 11.4473 32.3865 11.6744 31.7883 12.0247C31.1786 12.3655 30.646 12.8289 30.2243 13.3857L27.3805 8.47004C27.0352 7.86845 26.5747 7.34078 26.0253 6.91719C25.476 6.4936 24.8486 6.18237 24.179 6.00129C23.5094 5.82021 22.8106 5.77282 22.1227 5.86182C21.4347 5.95083 20.7711 6.1745 20.1696 6.52004C19.4964 6.91458 18.9148 7.44771 18.4633 8.0841C17.8295 7.48587 17.0534 7.05938 16.2086 6.84504C15.5401 6.66193 14.8417 6.61432 14.1545 6.70501C13.4673 6.79571 12.8052 7.02288 12.2071 7.37317C11.6067 7.72052 11.0807 8.18272 10.6589 8.73339C10.2372 9.28406 9.92812 9.9124 9.74926 10.5825C9.54361 11.3234 9.50889 12.1013 9.6477 12.8575C9.14349 12.9811 8.65835 13.1725 8.20551 13.4263C6.99259 14.1311 6.10845 15.2879 5.74676 16.6433C5.38507 17.9987 5.57532 19.4421 6.27582 20.6575L6.68207 21.3482C5.98513 21.429 5.31343 21.6575 4.71176 22.0185C3.50023 22.7194 2.61648 23.8725 2.25465 25.2246C1.89283 26.5767 2.08253 28.0171 2.78207 29.2294L10.2977 42.2497C12.4558 45.9796 16.0055 48.701 20.1677 49.8168C24.33 50.9325 28.7649 50.3515 32.4993 48.2013C35.7755 46.3258 38.2856 43.3554 39.5883 39.8122C42.2292 37.3005 43.9478 33.973 44.4673 30.3657C44.9869 26.7584 44.2771 23.0812 42.4524 19.9263L38.9993 13.9544ZM21.7946 9.34348C22.0264 9.20918 22.2825 9.12206 22.5482 9.08716C22.8138 9.05225 23.0837 9.07025 23.3424 9.14011C23.6011 9.20996 23.8433 9.3303 24.0553 9.49419C24.2673 9.65808 24.4447 9.86229 24.5774 10.095L28.904 17.5904C28.5146 17.7108 28.1399 17.8743 27.7868 18.0779C27.1818 18.4254 26.6506 18.8877 26.2227 19.4388L23.379 14.5232C22.8841 13.6576 22.1508 12.9525 21.2664 12.4919L21.043 12.1263C20.7772 11.6568 20.7071 11.1015 20.8477 10.5807C20.9884 10.0598 21.3286 9.61533 21.7946 9.34348ZM13.8321 10.1763C14.3016 9.91049 14.8569 9.84033 15.3777 9.981C15.8986 10.1217 16.343 10.4618 16.6149 10.9279L17.2852 12.106C16.8973 12.2302 16.5229 12.3936 16.168 12.5935C15.4864 12.9765 14.9025 13.5118 14.4618 14.1575C14.115 13.8348 13.7254 13.5614 13.3039 13.345L13.1008 12.9591C12.9657 12.7285 12.8774 12.4735 12.841 12.2086C12.8046 11.9438 12.8209 11.6744 12.8888 11.4159C12.9567 11.1574 13.075 10.9148 13.2369 10.7021C13.3987 10.4894 13.601 10.3107 13.8321 10.1763ZM30.8743 45.3779C27.8895 47.1005 24.3428 47.5676 21.0138 46.6763C17.6848 45.785 14.8459 43.6083 13.1211 40.6247L5.60551 27.6044C5.40325 27.2571 5.30854 26.8577 5.33338 26.4566C5.35821 26.0555 5.50147 25.6707 5.74503 25.3511C5.98858 25.0314 6.32148 24.7912 6.70161 24.6608C7.08174 24.5304 7.49201 24.5156 7.88051 24.6185C8.40143 24.7645 8.84552 25.1067 9.11957 25.5732L13.9946 34.0232C14.1397 34.2667 14.3447 34.4691 14.5899 34.6113C14.8352 34.7535 15.1127 34.8307 15.3961 34.8357C15.6809 34.8347 15.9604 34.7589 16.2066 34.6158C16.4529 34.4728 16.6572 34.2676 16.7991 34.0207C16.9411 33.7738 17.0157 33.494 17.0154 33.2092C17.0152 32.9245 16.9401 32.6448 16.7977 32.3982L9.07895 19.0325C8.80959 18.5639 8.73745 18.0074 8.87839 17.4855C9.01934 16.9636 9.36182 16.5191 9.83051 16.2497C10.2992 15.9804 10.8557 15.9082 11.3776 16.0492C11.8995 16.1901 12.344 16.5326 12.6133 17.0013L20.3321 30.3669C20.429 30.569 20.5666 30.7488 20.7364 30.8951C20.9061 31.0414 21.1043 31.151 21.3184 31.217C21.5326 31.283 21.7581 31.3041 21.9807 31.2788C22.2034 31.2535 22.4184 31.1824 22.6122 31.07C22.8061 30.9576 22.9746 30.8064 23.1072 30.6257C23.2398 30.4451 23.3336 30.2389 23.3827 30.0203C23.4319 29.8017 23.4352 29.5752 23.3926 29.3552C23.35 29.1352 23.2624 28.9264 23.1352 28.7419L17.0415 18.1794C16.7757 17.7099 16.7055 17.1546 16.8462 16.6338C16.9868 16.1129 17.327 15.6685 17.793 15.3966C18.2594 15.1318 18.8116 15.0622 19.3292 15.203C19.8467 15.3438 20.2875 15.6836 20.5555 16.1482L29.0868 30.9357C29.2337 31.1821 29.4418 31.3864 29.6909 31.5287C29.9401 31.6711 30.2217 31.7467 30.5086 31.7482C30.7936 31.7411 31.0726 31.6644 31.3211 31.5247C31.6919 31.3083 31.9619 30.954 32.0722 30.5392C32.1826 30.1243 32.1244 29.6827 31.9102 29.3107L28.6602 23.6638C28.3935 23.2029 28.3204 22.655 28.4571 22.1404C28.5221 21.8791 28.6404 21.6342 28.8047 21.4209C28.969 21.2077 29.1757 21.0307 29.4118 20.9013C29.6378 20.7637 29.8899 20.6746 30.1521 20.6397C30.4144 20.6047 30.6811 20.6246 30.9352 20.6982C31.1938 20.763 31.4367 20.8791 31.6495 21.0396C31.8624 21.2001 32.0408 21.4018 32.1743 21.6325L35.6274 27.6247C36.4831 29.102 37.0389 30.7335 37.2631 32.4259C37.4873 34.1183 37.3755 35.8383 36.934 37.4874C36.4924 39.1365 35.7299 40.6823 34.6901 42.0363C33.6503 43.3902 32.3536 44.5258 30.8743 45.3779ZM40.543 32.581C40.3322 30.2613 39.6182 28.0154 38.4508 25.9997L34.9977 20.0075C34.4967 19.1468 33.7649 18.4432 32.8852 17.9763L32.6618 17.6107C32.3938 17.1428 32.3209 16.5882 32.4586 16.0669C32.6047 15.546 32.9469 15.1019 33.4133 14.8279C33.6436 14.694 33.8982 14.6073 34.1623 14.5726C34.4264 14.538 34.6947 14.5561 34.9517 14.6261C35.2087 14.696 35.4493 14.8163 35.6594 14.9799C35.8696 15.1436 36.0451 15.3474 36.1758 15.5794L39.629 21.5513C40.5822 23.2097 41.1583 25.0578 41.3162 26.9642C41.4742 28.8705 41.2102 30.7882 40.543 32.581ZM33.5149 5.01692L34.3477 1.86848C34.4024 1.66175 34.4973 1.46782 34.6269 1.29775C34.7565 1.12768 34.9184 0.984814 35.1032 0.877301C35.2881 0.769788 35.4923 0.699736 35.7042 0.671145C35.9161 0.642554 36.1316 0.655984 36.3383 0.710667C36.5451 0.76535 36.739 0.860216 36.9091 0.989849C37.0791 1.11948 37.222 1.28134 37.3295 1.46619C37.437 1.65104 37.5071 1.85525 37.5357 2.06717C37.5643 2.27909 37.5508 2.49456 37.4961 2.70129L36.643 5.84973C36.5527 6.19496 36.3498 6.50023 36.0666 6.71728C35.7833 6.93432 35.4358 7.05076 35.079 7.04817L34.6524 7.00754C34.2381 6.89352 33.8859 6.62008 33.6727 6.24703C33.4596 5.87399 33.4028 5.4317 33.5149 5.01692ZM38.8571 6.88567L40.7258 4.22473C40.9755 3.87159 41.3542 3.63098 41.78 3.55495C42.2058 3.47892 42.6443 3.57359 43.0008 3.81848C43.1763 3.94194 43.3255 4.09892 43.44 4.28035C43.5544 4.46179 43.6318 4.66409 43.6677 4.87559C43.7036 5.08708 43.6972 5.30359 43.649 5.51262C43.6008 5.72165 43.5117 5.91907 43.3868 6.09348L41.518 8.75442C41.3964 8.92918 41.2413 9.07799 41.0616 9.1922C40.8819 9.30641 40.6813 9.38373 40.4715 9.41965C40.2617 9.45557 40.0468 9.44937 39.8393 9.40142C39.6319 9.35347 39.4361 9.26472 39.2633 9.14035C38.9116 8.89438 38.6714 8.51922 38.5953 8.09678C38.5192 7.67434 38.6133 7.23895 38.8571 6.88567ZM47.7743 11.2732L45.1133 13.1419C44.8352 13.3236 44.5111 13.4223 44.179 13.4263C43.8361 13.4236 43.5028 13.3125 43.2269 13.1089C42.951 12.9052 42.7466 12.6196 42.6429 12.2927C42.5392 11.9659 42.5416 11.6146 42.6496 11.2892C42.7577 10.9638 42.966 10.6809 43.2446 10.481L45.9055 8.61223C46.0799 8.48733 46.2773 8.3982 46.4864 8.34999C46.6954 8.30177 46.9119 8.29542 47.1234 8.33129C47.3349 8.36717 47.5372 8.44457 47.7186 8.55903C47.9001 8.67349 48.0571 8.82274 48.1805 8.99817C48.4254 9.35466 48.5201 9.79323 48.444 10.219C48.368 10.6448 48.1274 11.0235 47.7743 11.2732Z" fill="white"/>
</svg>
