<svg width="53" height="52" viewBox="0 0 53 52" fill="none" xmlns="http://www.w3.org/2000/svg">
<path d="M26.4445 4.87497C22.2664 4.87497 18.1821 6.11393 14.7081 8.43517C11.2341 10.7564 8.52647 14.0557 6.92757 17.9158C5.32867 21.7759 4.91033 26.0234 5.72544 30.1213C6.54055 34.2191 8.55251 37.9832 11.5069 40.9376C14.4613 43.892 18.2254 45.9039 22.3232 46.7191C26.4211 47.5342 30.6686 47.1158 34.5287 45.5169C38.3888 43.918 41.6881 41.2104 44.0093 37.7364C46.3306 34.2624 47.5695 30.1781 47.5695 26C47.5588 20.4006 45.3297 15.0336 41.3703 11.0742C37.4109 7.11482 32.0439 4.88571 26.4445 4.87497ZM26.4445 43.875C22.9092 43.875 19.4532 42.8266 16.5137 40.8625C13.5742 38.8984 11.2831 36.1067 9.93018 32.8404C8.57727 29.5742 8.22328 25.9801 8.91299 22.5127C9.6027 19.0453 11.3051 15.8603 13.805 13.3604C16.3049 10.8606 19.4899 9.15814 22.9573 8.46843C26.4247 7.77872 30.0188 8.13271 33.285 9.48562C36.5512 10.8385 39.3429 13.1296 41.307 16.0692C43.2712 19.0087 44.3195 22.4646 44.3195 26C44.3142 30.7391 42.4292 35.2825 39.0781 38.6336C35.7271 41.9846 31.1836 43.8696 26.4445 43.875ZM16.6945 21.9375C16.6945 21.4554 16.8375 20.9841 17.1053 20.5833C17.3732 20.1824 17.7538 19.87 18.1992 19.6855C18.6446 19.501 19.1347 19.4528 19.6076 19.5468C20.0804 19.6409 20.5147 19.873 20.8556 20.2139C21.1965 20.5548 21.4286 20.9891 21.5227 21.4619C21.6167 21.9348 21.5685 22.4249 21.384 22.8703C21.1995 23.3157 20.8871 23.6963 20.4862 23.9642C20.0854 24.232 19.6141 24.375 19.132 24.375C18.4856 24.375 17.8656 24.1182 17.4085 23.661C16.9513 23.2039 16.6945 22.5839 16.6945 21.9375ZM31.3195 21.9375C31.3195 21.4554 31.4625 20.9841 31.7303 20.5833C31.9982 20.1824 32.3788 19.87 32.8242 19.6855C33.2696 19.501 33.7597 19.4528 34.2326 19.5468C34.7054 19.6409 35.1397 19.873 35.4806 20.2139C35.8215 20.5548 36.0536 20.9891 36.1477 21.4619C36.2417 21.9348 36.1935 22.4249 36.009 22.8703C35.8245 23.3157 35.5121 23.6963 35.1112 23.9642C34.7104 24.232 34.2391 24.375 33.757 24.375C33.1106 24.375 32.4906 24.1182 32.0335 23.661C31.5763 23.2039 31.3195 22.5839 31.3195 21.9375ZM36.2961 31.6875C35.2978 33.4169 33.8618 34.8531 32.1325 35.8517C30.4032 36.8502 28.4414 37.3759 26.4445 37.3759C24.4476 37.3759 22.4859 36.8502 20.7566 35.8517C19.0272 34.8531 17.5913 33.4169 16.593 31.6875C16.4658 31.503 16.3781 31.2942 16.3355 31.0742C16.2929 30.8542 16.2963 30.6277 16.3454 30.4091C16.3945 30.1904 16.4883 29.9843 16.6209 29.8037C16.7535 29.623 16.9221 29.4718 17.1159 29.3594C17.3098 29.247 17.5248 29.1759 17.7475 29.1506C17.9701 29.1253 18.1956 29.1463 18.4097 29.2124C18.6239 29.2784 18.822 29.388 18.9918 29.5343C19.1615 29.6806 19.2992 29.8604 19.3961 30.0625C20.1117 31.2981 21.1396 32.3239 22.3767 33.037C23.6138 33.7501 25.0166 34.1254 26.4445 34.1254C27.8724 34.1254 29.2752 33.7501 30.5123 33.037C31.7494 32.3239 32.7773 31.2981 33.493 30.0625C33.7251 29.7257 34.0757 29.4889 34.4748 29.3992C34.8738 29.3096 35.292 29.3737 35.6459 29.5789C35.9998 29.784 36.2632 30.115 36.3838 30.5059C36.5043 30.8967 36.473 31.3187 36.2961 31.6875Z" fill="white"/>
</svg>
