<svg width="53" height="52" viewBox="0 0 53 52" fill="none" xmlns="http://www.w3.org/2000/svg">
<path d="M25.1735 32.0738C27.3537 30.6255 29.0098 28.5137 29.8965 26.0511C30.7833 23.5884 30.8537 20.9057 30.0972 18.4C29.3408 15.8942 27.7977 13.6985 25.6964 12.1379C23.5951 10.5773 21.0472 9.73462 18.4298 9.73462C15.8123 9.73462 13.2644 10.5773 11.1631 12.1379C9.06179 13.6985 7.51874 15.8942 6.76231 18.4C6.00587 20.9057 6.07623 23.5884 6.96299 26.0511C7.84975 28.5137 9.50578 30.6255 11.686 32.0738C7.96673 33.4415 4.75555 35.9155 2.48445 39.1629C2.33642 39.3344 2.2259 39.535 2.15997 39.7517C2.09403 39.9685 2.07415 40.1966 2.1016 40.4215C2.12905 40.6464 2.20321 40.863 2.31934 41.0576C2.43547 41.2521 2.59099 41.4202 2.77592 41.5511C2.96085 41.6819 3.1711 41.7727 3.39318 41.8175C3.61526 41.8623 3.84425 41.8602 4.06546 41.8113C4.28667 41.7624 4.49521 41.6677 4.67769 41.5335C4.86017 41.3992 5.01256 41.2283 5.12507 41.0316C6.62672 38.8983 8.61932 37.1574 10.9349 35.9557C13.2504 34.7539 15.821 34.1266 18.4298 34.1266C21.0386 34.1266 23.6091 34.7539 25.9247 35.9557C28.2402 37.1574 30.2328 38.8983 31.7344 41.0316C31.847 41.2283 31.9993 41.3992 32.1818 41.5335C32.3643 41.6677 32.5728 41.7624 32.7941 41.8113C33.0153 41.8602 33.2443 41.8623 33.4663 41.8175C33.6884 41.7727 33.8987 41.6819 34.0836 41.5511C34.2685 41.4202 34.4241 41.2521 34.5402 41.0576C34.6563 40.863 34.7305 40.6464 34.7579 40.4215C34.7854 40.1966 34.7655 39.9685 34.6996 39.7517C34.6336 39.535 34.5231 39.3344 34.3751 39.1629C32.104 35.9155 28.8928 33.4415 25.1735 32.0738ZM9.49226 21.9379C9.49226 20.1702 10.0164 18.4422 10.9985 16.9725C11.9806 15.5027 13.3764 14.3572 15.0095 13.6807C16.6426 13.0042 18.4397 12.8273 20.1734 13.1721C21.9071 13.517 23.4996 14.3682 24.7495 15.6181C25.9995 16.868 26.8507 18.4606 27.1955 20.1943C27.5404 21.928 27.3634 23.725 26.6869 25.3581C26.0105 26.9912 24.8649 28.3871 23.3952 29.3691C21.9254 30.3512 20.1974 30.8754 18.4298 30.8754C16.0594 30.8754 13.7861 29.9338 12.11 28.2576C10.4339 26.5815 9.49226 24.3083 9.49226 21.9379ZM50.5438 41.4176C50.371 41.5419 50.1752 41.6307 49.9678 41.6786C49.7604 41.7266 49.5455 41.7328 49.3356 41.6969C49.1258 41.6609 48.9252 41.5836 48.7455 41.4694C48.5659 41.3552 48.4107 41.2064 48.2891 41.0316C46.7864 38.8993 44.7936 37.1591 42.4784 35.9573C40.1631 34.7554 37.5931 34.1272 34.9844 34.1254C34.5535 34.1254 34.1401 33.9542 33.8354 33.6494C33.5307 33.3447 33.3594 32.9314 33.3594 32.5004C33.3594 32.0694 33.5307 31.6561 33.8354 31.3513C34.1401 31.0466 34.5535 30.8754 34.9844 30.8754C37.3548 30.8754 39.6281 29.9338 41.3042 28.2576C42.9803 26.5815 43.9219 24.3083 43.9219 21.9379C43.9219 19.5675 42.9803 17.2942 41.3042 15.6181C39.6281 13.942 37.3548 13.0004 34.9844 13.0004C34.1682 13.0058 33.356 13.115 32.5673 13.3254C32.3619 13.3843 32.1469 13.4021 31.9346 13.3778C31.7223 13.3535 31.5169 13.2876 31.3301 13.1839C31.1433 13.0801 30.9788 12.9405 30.846 12.7731C30.7133 12.6057 30.6148 12.4137 30.5563 12.2082C30.4429 11.7935 30.4963 11.3509 30.7051 10.975C30.9139 10.5992 31.2615 10.32 31.6735 10.1973C32.7533 9.90651 33.8662 9.75631 34.9844 9.75038C37.6046 9.74095 40.1578 10.5776 42.2642 12.1358C44.3707 13.6941 45.9179 15.8907 46.6756 18.3989C47.4333 20.9071 47.3611 23.5929 46.4697 26.0568C45.5783 28.5207 43.9153 30.631 41.7282 32.0738C45.4499 33.4471 48.6661 35.9194 50.9501 39.1629C51.1939 39.5162 51.288 39.9516 51.2119 40.374C51.1358 40.7964 50.8956 41.1716 50.5438 41.4176Z" fill="white"/>
</svg>
